<?xml version="1.0" standalone="no"?>
<!DOCTYPE svg PUBLIC "-//W3C//DTD SVG 20010904//EN"
 "http://www.w3.org/TR/2001/REC-SVG-20010904/DTD/svg10.dtd">
<svg version="1.0" xmlns="http://www.w3.org/2000/svg"
 width="500.000000pt" height="500.000000pt" viewBox="0 0 500.000000 500.000000"
 preserveAspectRatio="xMidYMid meet">

<g transform="translate(0.000000,500.000000) scale(0.100000,-0.100000)"
fill="#000000" stroke="none">
<path d="M2397 4518 c-90 -8 -224 -52 -304 -99 -86 -51 -212 -181 -267 -274
-55 -94 -100 -228 -115 -340 -6 -44 -13 -338 -17 -652 l-7 -573 -86 -1 c-47 0
-102 -5 -121 -12 l-35 -12 -5 -160 c-3 -88 -5 -531 -5 -985 0 -933 -6 -863 80
-901 122 -54 522 -49 945 11 74 10 250 35 390 55 448 63 632 109 691 171 l24
26 3 861 c1 474 0 877 -3 895 -4 23 -14 36 -33 44 -19 8 -191 13 -582 14 -305
1 -649 3 -763 3 l-209 1 4 593 c5 649 3 634 68 772 34 73 132 183 195 221 106
62 253 82 370 50 197 -52 375 -240 439 -461 17 -61 20 -107 24 -377 3 -292 4
-306 23 -311 26 -7 25 -44 -2 -66 -17 -14 -20 -23 -14 -54 10 -53 46 -70 141
-65 122 6 114 -20 114 384 0 188 -5 378 -11 421 -32 238 -129 433 -293 591
-181 174 -398 252 -639 230z"/>
</g>
</svg>
